<svg xmlns="http://www.w3.org/2000/svg" width="73.174" height="45.228" viewBox="0 0 73.174 45.228"><defs><style>.a{fill:#f79410;}.b{fill:#ff5f00;}.c{fill:#eb001b;}.d{fill:#f79e1b;}</style></defs><g transform="translate(0 0.001)"><path class="a" d="M1930.755,978.1v-.878h-.229l-.265.6-.263-.6h-.229v.878h.163v-.661l.247.571h.168l.247-.572v.663h.161Zm-1.45,0v-.728h.293v-.148h-.748v.148h.293v.728h.161Z" transform="translate(-1858.288 -941.471)"/><path class="b" d="M749.5,167.708H729.71V132.15H749.5Z" transform="translate(-703.016 -127.316)"/><path class="c" d="M27.949,22.614A22.577,22.577,0,0,1,36.585,4.834a22.614,22.614,0,1,0,0,35.558,22.577,22.577,0,0,1-8.637-17.779" transform="translate(0 0)"/><path class="d" d="M1036.7,22.614a22.613,22.613,0,0,1-36.587,17.779,22.616,22.616,0,0,0,0-35.558A22.613,22.613,0,0,1,1036.7,22.614" transform="translate(-963.524 0)"/></g></svg>